<?xml version="1.0" encoding="utf-8"?>
<!-- Generator: Adobe Illustrator 25.2.0, SVG Export Plug-In . SVG Version: 6.00 Build 0)  -->
<svg version="1.1" id="Layer_1" xmlns="http://www.w3.org/2000/svg" xmlns:xlink="http://www.w3.org/1999/xlink" x="0px" y="0px"
	 viewBox="0 0 251.2 311.8" style="enable-background:new 0 0 251.2 311.8;" xml:space="preserve">
<g>
	<path d="M251.2,216.6c0,52.8-42.9,95.3-95.3,95.3H69.3C31.2,311.8,0,280.7,0,242.5h155.9c14.3,0,26-11.7,26-26
		c0-14.3-11.7-26-26-26H95.3C42.4,190.6,0,148.1,0,95.3C0,42.9,42.4,0,95.3,0h129.9c0,38.1-31.2,69.3-69.3,69.3H95.3
		c-14.3,0-26,11.7-26,26s11.7,26,26,26h60.6C208.3,121.3,251.2,164.2,251.2,216.6z"/>
</g>
<g>
</g>
<g>
</g>
<g>
</g>
<g>
</g>
<g>
</g>
<g>
</g>
<g>
</g>
<g>
</g>
<g>
</g>
<g>
</g>
<g>
</g>
<g>
</g>
<g>
</g>
<g>
</g>
<g>
</g>
</svg>
